<svg width="24" height="24" viewBox="0 0 24 24" fill="none" xmlns="http://www.w3.org/2000/svg">
<path d="M20.9723 7.07865L6.59243 21.4585L1.80005 22.417L2.75853 17.6232L17.1384 3.24609" stroke="black" stroke-width="1.5" stroke-miterlimit="10" stroke-linejoin="round"/>
<path d="M17.1384 3.24475C17.3885 2.98578 17.6877 2.77922 18.0185 2.63712C18.3493 2.49502 18.7051 2.42022 19.0651 2.41709C19.4252 2.41397 19.7822 2.48257 20.1154 2.6189C20.4486 2.75523 20.7514 2.95656 21.0059 3.21114C21.2605 3.46572 21.4619 3.76845 21.5982 4.10167C21.7345 4.43489 21.8031 4.79193 21.8 5.15194C21.7969 5.51196 21.7221 5.86775 21.58 6.19855C21.4379 6.52935 21.2313 6.82854 20.9723 7.07866" stroke="black" stroke-width="1.5" stroke-miterlimit="10"/>
<path d="M15.2201 5.16211L19.0554 8.99737" stroke="black" stroke-width="1.5" stroke-miterlimit="10" stroke-linecap="round"/>
</svg>
